HIERARCHY
ROOT Hips
{
	OFFSET 0.00000 0.00000 0.00000
	CHANNELS 6 Xposition Yposition Zposition Yrotation Zrotation Xrotation 
	JOINT Lumbar
	{
		OFFSET 0 0 0
		CHANNELS 3 Zrotation Xrotation Yrotation
		JOINT Neck
		{
			OFFSET 0.00 0.2701 0.00
			CHANNELS 3 Zrotation Xrotation Yrotation
			End Site
			{
				OFFSET 0.00 0.1379 0.00
			}
		}
		JOINT RightShoulder
		{
			OFFSET 0.0119 0.2289 0.1181
			CHANNELS 3 Zrotation Xrotation Yrotation
			JOINT RightElbow
			{
				OFFSET 0.00 -0.1475 0.00
				CHANNELS 2 Zrotation Yrotation
				JOINT RightWrist
				{
					OFFSET 0.00 -0.1605 0.00
					CHANNELS 2 Zrotation Xrotation
					End Site
					{
						OFFSET 0.0040 -0.1068 0.0006
					}
				}
			}
		}
		JOINT LeftShoulder
		{
			OFFSET 0.0119 0.2289 -0.1181
			CHANNELS 3 Zrotation Xrotation Yrotation
			JOINT LeftElbow
			{
				OFFSET 0.00 -0.1475 0.00
				CHANNELS 2 Zrotation Yrotation
				JOINT LeftWrist
				{
					OFFSET 0.00 -0.1605 0.00
					CHANNELS 2 Zrotation Xrotation
					End Site
					{
						OFFSET 0.0040 -0.1068 -0.0006
					}
				}
			}
		}
	}
	JOINT RightHip
	{
		OFFSET 0.0316 -0.0424 0.0458
		CHANNELS 3 Zrotation Xrotation Yrotation
		JOINT RightKnee
		{
			OFFSET 0.00 -0.2438 0.00
			CHANNELS 1 Zrotation
			JOINT RightAnkle
			{
				OFFSET 0.00 -0.2449 0.00
				CHANNELS 3 Zrotation Xrotation Yrotation
				End Site
				{
					OFFSET 0.1237 -0.0542 0.0051
				}
			}
		}
	}
	JOINT LeftHip
	{
		OFFSET 0.0316 -0.0424 -0.0458
		CHANNELS 3 Zrotation Xrotation Yrotation
		JOINT LeftKnee
		{
			OFFSET 0.00 -0.2438 0.00
			CHANNELS 1 Zrotation
			JOINT LeftAnkle
			{
				OFFSET 0.00 -0.2449 0.00
				CHANNELS 3 Zrotation Xrotation Yrotation
				End Site
				{
					OFFSET 0.1237 -0.0542 -0.0051
				}
			}
		}
	}
}
MOTION
Frames: 19
Frame Time: 0.02
-0.00114 -0.01981 -0.06897 -177.29206 -27.04513 -9.89292 42.38538 7.2156 -12.99703 -2.54588 -5.06083 -0.82962 -62.55794 -53.95801 41.75581 110.50071 79.32667 -6.71423 -2.10208 46.5246 -8.33375 -17.9755 128.15208 -81.75165 0.65547 3.13685 30.24133 11.11963 -26.75109 -21.63662 -7.15661 -0.2471 -0.74029 46.41808 0.26754 18.95757 -57.61589 -9.73991 1.52317 1.50762
-0.00151 -0.01991 -0.06929 -177.2733 -26.99291 -9.9007 42.39167 7.16059 -12.93394 -2.70428 -5.02408 -0.82962 -61.79313 -54.45867 42.75749 110.4507 79.4822 -6.96332 -2.27137 46.55637 -7.38415 -18.31027 128.19739 -81.63934 0.12573 3.19984 30.14244 11.15889 -26.83588 -21.64187 -4.96309 1.16582 -0.00768 46.33886 0.30906 18.89084 -57.67347 -9.71026 1.52361 1.50566
-0.00199 -0.02001 -0.0696 -177.27838 -26.91175 -9.90475 42.40485 7.10886 -12.8225 -2.87059 -4.97174 -0.82962 -60.82322 -55.07698 44.04512 110.39208 79.67277 -7.27853 -2.47918 46.74568 -5.87678 -18.85999 128.24765 -81.43702 -0.81323 3.29549 29.99613 11.19687 -26.91905 -21.6413 -2.19479 2.95318 0.91812 46.1901 0.34139 18.82998 -57.68567 -9.66507 1.52873 1.50533
-0.00243 -0.0201 -0.0699 -177.27418 -26.84439 -9.91005 42.42032 7.05633 -12.73265 -3.03848 -4.92517 -0.82962 -59.97462 -55.63323 45.16653 110.34098 79.84309 -7.55587 -2.66429 46.82177 -4.72023 -19.27363 128.29684 -81.28813 -1.47766 3.36304 29.87112 11.2345 -26.99934 -21.64251 0.1608 4.47389 1.70523 46.0632 0.37305 18.77352 -57.70232 -9.62448 1.53319 1.50508
-0.00285 -0.02021 -0.07025 -177.26141 -26.77401 -9.91684 42.41379 6.99975 -12.646 -3.18531 -4.88564 -0.82963 -59.00282 -56.22889 46.44722 110.27615 80.03206 -7.86926 -2.87151 47.06086 -3.18643 -19.83674 128.34138 -81.09011 -2.489 3.48468 29.74624 11.27653 -27.09391 -21.64722 3.15435 6.40031 2.70595 45.97606 0.42555 18.6881 -57.78769 -9.59416 1.5313 1.50128
-0.00333 -0.02028 -0.0705 -177.27364 -26.7031 -9.92006 42.4545 6.95328 -12.54059 -3.37765 -4.82667 -0.82963 -58.24378 -56.76841 47.45667 110.23688 80.19047 -8.11958 -3.04202 47.00525 -2.28351 -20.14678 128.39652 -80.971 -2.8915 3.5031 29.61027 11.30886 -27.15877 -21.64345 4.97617 7.58368 3.31498 45.79039 0.43155 18.66299 -57.71859 -9.5388 1.5441 1.50547
-0.00398 -0.02022 -0.07051 -177.34054 -26.6384 -9.91113 42.62229 6.92836 -12.39547 -3.6927 -4.72401 -0.82963 -58.08209 -57.13549 47.71076 110.27503 80.25408 -8.20971 -3.09886 46.06589 -3.37431 -19.67582 128.4813 -81.1 -1.43541 3.21718 29.45405 11.31549 -27.14153 -21.61606 3.16656 6.46438 2.70712 45.34668 0.32113 18.81626 -57.23977 -9.41834 1.59269 1.52927
-0.00469 -0.02011 -0.07041 -177.43371 -26.57401 -9.89942 42.83734 6.91469 -12.23314 -4.05328 -4.60113 -0.82963 -58.1477 -57.44063 47.67133 110.33796 80.2857 -8.22781 -3.11808 44.83153 -5.09306 -18.94945 128.57614 -81.31004 0.63054 2.82889 29.28861 11.31225 -27.09468 -21.58063 0.19664 4.60868 1.71185 44.80737 0.16281 19.02758 -56.60675 -9.27335 1.65649 1.56141
-0.00537 -0.02003 -0.07034 -177.5204 -26.50931 -9.89099 43.03196 6.89952 -12.07792 -4.3936 -4.48319 -0.82963 -58.13784 -57.76498 47.72294 110.38653 80.3335 -8.25993 -3.1561 43.75458 -6.44736 -18.36115 128.66542 -81.47658 2.36348 2.49449 29.12834 11.31291 -27.06179 -21.54999 -2.07027 3.19737 0.95334 44.31339 0.01971 19.20367 -56.03967 -9.13925 1.71575 1.59113
-0.00608 -0.01993 -0.07034 -177.58418 -26.44479 -9.8736 43.22328 6.86894 -11.92284 -4.73257 -4.38227 -0.82964 -58.00976 -58.12685 47.95821 110.44874 80.37685 -8.37602 -3.18754 42.58544 -8.1224 -17.68828 128.75946 -81.66621 4.31728 2.12842 28.96241 11.31577 -27.0266 -21.51446 -5.03436 1.351 -0.04618 43.8072 -0.09737 19.41735 -55.48545 -9.00505 1.76541 1.61527
-0.00672 -0.01985 -0.07017 -177.70245 -26.37974 -9.87466 43.43151 6.87342 -11.76551 -5.08484 -4.24178 -0.82964 -58.17646 -58.39979 47.74392 110.48748 80.41985 -8.29594 -3.22417 41.53489 -9.27826 -17.1269 128.84541 -81.83063 5.96245 1.80571 28.80651 11.31202 -26.98933 -21.48716 -6.85971 0.21231 -0.64879 43.30692 -0.27827 19.5664 -54.87219 -8.86622 1.83829 1.65281
-0.00717 -0.01981 -0.06953 -177.95711 -26.3185 -9.92377 43.68433 6.96885 -11.59368 -5.46443 -3.99312 -0.82964 -59.17075 -58.39645 46.30482 110.46463 80.4832 -7.72109 -3.27596 40.89449 -8.91054 -16.94609 128.90958 -81.8833 6.59698 1.60888 28.68274 11.28976 -26.95211 -21.48559 -4.99532 1.36908 0.03057 42.82855 -0.63749 19.52317 -54.10305 -8.71415 1.97449 1.72674
-0.00754 -0.01979 -0.06873 -178.26667 -26.25593 -9.99207 43.95079 7.0996 -11.42279 -5.85547 -3.70628 -0.82964 -60.44094 -58.31488 44.43326 110.41579 80.54483 -6.94676 -3.33538 40.38033 -7.98863 -16.88338 128.96395 -81.91143 6.90434 1.46232 28.5694 11.26157 -26.91384 -21.49238 -1.993 3.23366 1.10597 42.36397 -1.05656 19.41282 -53.28682 -8.55972 2.13296 1.81359
-0.00792 -0.01976 -0.068 -178.55647 -26.1905 -10.0542 44.20473 7.21639 -11.25985 -6.24003 -3.43937 -0.82965 -61.54173 -58.29713 42.79321 110.37257 80.59798 -6.24264 -3.39696 39.8014 -7.28252 -16.75882 129.02168 -81.96708 7.36854 1.30526 28.44989 11.238 -26.87736 -21.49475 0.30937 4.66378 1.9377 41.904 -1.43919 19.33287 -52.51105 -8.41041 2.27934 1.8936
-0.0084 -0.01973 -0.06726 -178.82676 -26.13938 -10.1062 44.48686 7.32532 -11.06074 -6.63151 -3.16029 -0.82965 -62.84029 -58.15319 40.99144 110.3556 80.68831 -5.61724 -3.43462 39.24578 -6.75371 -16.65991 129.08731 -81.9604 7.8162 1.09353 28.33537 11.20643 -26.8354 -21.49961 3.32852 6.5356 3.01985 41.39119 -1.86282 19.25524 -51.64499 -8.24236 2.43465 1.97804
-0.00866 -0.0197 -0.06652 -179.14852 -26.05852 -10.18297 44.7131 7.45811 -10.93765 -7.01081 -2.89849 -0.82965 -63.78431 -58.2603 39.43264 110.27841 80.70225 -4.78787 -3.52299 38.67255 -5.71149 -16.53904 129.13036 -82.07165 8.21664 1.00767 28.21391 11.18966 -26.8036 -21.50119 5.15867 7.67639 3.68585 40.99742 -2.21426 19.15623 -50.96339 -8.11411 2.57635 2.05615
-0.0084 -0.01969 -0.06586 -179.61499 -25.89247 -10.33118 44.7788 7.65487 -11.02182 -7.35207 -2.68764 -0.82965 -63.72619 -59.02784 38.60736 110.03303 80.49694 -3.38997 -3.76166 38.04457 -3.42325 -16.32749 129.14522 -82.56078 8.53282 1.26811 28.06338 11.22004 -26.81173 -21.4935 3.27331 6.53221 3.05358 40.89222 -2.35431 19.01393 -50.75532 -8.08741 2.67585 2.11416
-0.00792 -0.01968 -0.0652 -180.1284 -25.69701 -10.50213 44.78763 7.8732 -11.18245 -7.68057 -2.49678 -0.82966 -63.29295 -60.06005 38.05029 109.72947 80.21682 -1.80487 -4.04908 37.39074 -0.62871 -16.09056 129.13216 -83.16283 8.81746 1.65167 27.90682 11.2646 -26.82778 -21.48197 0.18816 4.64996 2.00113 40.91418 -2.41859 18.85289 -50.74371 -8.10233 2.76063 2.1652
-0.00752 -0.01967 -0.06453 -180.60942 -25.5175 -10.65771 44.82467 8.07706 -11.31044 -8.01599 -2.30082 -0.82966 -63.00042 -61.00629 37.40119 109.45773 79.97654 -0.34038 -4.30631 36.73479 1.96226 -15.8681 129.11046 -83.67932 9.13398 1.97249 27.75806 11.2996 -26.83312 -21.471 -2.24304 3.16914 1.17651 40.90191 -2.51608 18.69983 -50.67452 -8.1046 2.85154 2.21905
